<svg id="Layer_1" data-name="Layer 1" xmlns="http://www.w3.org/2000/svg" viewBox="0 0 55.78 32.82"><defs><style>.cls-1{fill:#b2b2b2;}</style></defs><title>Map</title><g id="yW2YL5.tif"><path class="cls-1" d="M17.17,28.44h-3a7.09,7.09,0,0,0-.71-.3,7.45,7.45,0,0,1-4.53-3.7A22,22,0,0,1,8,22.3v-3c.09-.22.19-.44.27-.67a7.42,7.42,0,0,1,6.57-5.49,20.48,20.48,0,0,1,3.62.2c.47-.93,1-2,1.5-3a.72.72,0,0,0,0-.55c-.38-.81-.79-1.6-1.21-2.42-.4.12-.75.23-1.11.32-.78.19-1.07,0-1.22-.66-.2-.94.07-1.59.79-1.61,1.84-.05,3.69,0,5.54,0,.19,0,.53.23.54.36a.85.85,0,0,1-.31.68,3.94,3.94,0,0,1-1.19.41A13.71,13.71,0,0,1,20.47,7c.29.59.57,1.08.78,1.61a1,1,0,0,0,1.07.66c3.87,0,7.74,0,11.61,0h.77L34.38,7.5c-.23-1.31-.23-1.27-1.54-1.32a7.61,7.61,0,0,1-2.33-.34c-1.07-.4-1.24-1.15-.61-2h.75a3.74,3.74,0,0,0,1.17.65,23.41,23.41,0,0,0,2.68.1c.87,0,1.1.21,1.24,1.06s.28,1.87.47,2.8c.33,1.57.7,3.13,1,4.7l.57-.05a7.7,7.7,0,0,1,8.25,5.37c.09.28.2.54.3.82v3a7.09,7.09,0,0,0-.3.71,7.45,7.45,0,0,1-3.7,4.53,22,22,0,0,1-2.14.9h-3c-.22-.09-.44-.2-.67-.27a7.66,7.66,0,0,1-4-12,22.84,22.84,0,0,1,3.07-2.76l-.4-1.53a.87.87,0,0,0-.19.1q-3.86,4.5-7.71,9a1.42,1.42,0,0,1-1.27.61c-.7,0-1.4,0-2.1,0-.42,0-.62.06-.73.57a7.57,7.57,0,0,1-5.29,6ZM36.11,15.3a6,6,0,0,0-3,7.86,6.09,6.09,0,0,0,11.29-4.56c-1.08-2.76-4.34-4.59-6.66-3.73.12.43.24.86.37,1.28.43,1.38.9,2.74,1.27,4.13a1.46,1.46,0,0,1-.28,1.1c-.11.14-.65.06-.91-.07s-.28-.45-.36-.71C37.24,18.85,36.68,17.07,36.11,15.3ZM17.64,15a6.06,6.06,0,0,0-6.91,9.24,6.06,6.06,0,0,0,6.88,2.26c2.26-.78,4.1-3,4-5H15.94c-.95,0-1.24-.47-.86-1.36.11-.25.24-.49.36-.74Zm9,4.27,7.21-8.42H22.4Zm-5.53-7.46-1.21,2.42a7.64,7.64,0,0,1,3.29,4.6c.3,1.16.29,1.16,1.49,1.1.12,0,.24,0,.45-.07Zm-2,3.89-2.08,4.19H21.7A6,6,0,0,0,19.13,15.74Z"/></g></svg>