<svg id="Layer_1" data-name="Layer 1" xmlns="http://www.w3.org/2000/svg" viewBox="0 0 113.32 72.29"><defs><style>.cls-1{fill:#cecece;}.cls-2{fill:#fff;}</style></defs><title>Map</title><polygon class="cls-1" points="32.2 62.87 12.67 68.87 12.67 30.46 32.2 37.46 32.2 62.87"/><polygon class="cls-1" points="43.14 53.53 27.57 56.53 27.57 3.74 43.14 9.74 43.14 53.53"/><polygon class="cls-1" points="68.3 53.13 55.98 55.51 55.98 13.73 68.3 18.48 68.3 53.13"/><polygon class="cls-1" points="47.06 53.13 53.22 55.51 53.22 13.73 47.06 18.48 47.06 53.13"/><polygon class="cls-1" points="91.77 48.42 94.85 50.13 94.85 20.04 91.77 23.46 91.77 48.42"/><polygon class="cls-1" points="18.02 43.13 24.18 45.51 24.18 3.74 18.02 8.48 18.02 43.13"/><polygon class="cls-1" points="2.84 66.11 9 68.22 9 31.19 2.84 35.4 2.84 66.11"/><polygon class="cls-1" points="109.79 60.01 79.75 64.71 79.75 34.62 109.79 40.1 109.79 60.01"/><polygon class="cls-1" points="72.17 63 78.33 64.71 78.33 34.62 72.17 38.04 72.17 63"/><circle class="cls-1" cx="91.77" cy="39.09" r="10.58"/><polygon class="cls-2" points="104.54 62.71 89.52 65.06 89.52 50.01 104.54 52.75 104.54 62.71"/><polygon class="cls-1" points="103.52 62.98 91.77 64.79 91.77 53.22 103.52 55.33 103.52 62.98"/></svg>