<svg id="Layer_1" data-name="Layer 1" xmlns="http://www.w3.org/2000/svg" viewBox="0 0 23.65 16.21"><defs><style>.cls-1{fill:#35a5a5;}</style></defs><title>Map</title><g id="_8kN6hb.tif" data-name="8kN6hb.tif"><path class="cls-1" d="M15.41,7.32a10,10,0,0,1-3-.24.48.48,0,0,1-.38-.35c-.27-.86-.54-1.72-.81-2.58a.23.23,0,0,1,0-.18,2.66,2.66,0,0,1,1-.68,12.45,12.45,0,0,1,3.87-1.15,11.09,11.09,0,0,1,1.67,0,4.21,4.21,0,0,1,1.39.28,1.91,1.91,0,0,1,1.29,2A2.17,2.17,0,0,1,19.55,6a6.17,6.17,0,0,1-2.19,1A8.21,8.21,0,0,1,15.41,7.32Z"/><path class="cls-1" d="M13.33,14.5a8.71,8.71,0,0,1-2.47-.15,11.41,11.41,0,0,1-2.08-.51,2.9,2.9,0,0,1-1.07-.58.24.24,0,0,1-.07-.19c.17-.9.35-1.81.52-2.71a.38.38,0,0,1,.26-.3,9.71,9.71,0,0,1,4.45-.57,6.76,6.76,0,0,1,2.56.7,2.37,2.37,0,0,1,1.23,1.23,1.91,1.91,0,0,1-.92,2.47,4.82,4.82,0,0,1-1.52.48Z"/><path class="cls-1" d="M5.07,9.36a4.46,4.46,0,0,1,2.13.52l0,0c.33.18.33.17.24.52q-.31,1.21-.6,2.43c0,.11-.07.15-.2.15a6.26,6.26,0,0,1-1.9-.34,2.71,2.71,0,0,1-1.19-.79,1.43,1.43,0,0,1,.65-2.31,6.76,6.76,0,0,1,.84-.23Z"/><path class="cls-1" d="M9.18,8.13a2.25,2.25,0,0,1-1.52-.38,1.37,1.37,0,0,1-.37-1.86,2.84,2.84,0,0,1,1.37-1.1,6.75,6.75,0,0,1,1.69-.45c.1,0,.11,0,.13.11l.61,1.65c.12.32.25.64.37,1a.14.14,0,0,1,0,.13A5,5,0,0,1,9.7,8C9.5,8.08,9.3,8.11,9.18,8.13Z"/></g></svg>