<svg id="Layer_1" data-name="Layer 1" xmlns="http://www.w3.org/2000/svg" viewBox="0 0 131.32 77.86"><defs><style>.cls-1{fill:#cecece;}</style></defs><title>Map</title><polygon class="cls-1" points="60.36 18.18 47.17 56.16 73.55 56.16 60.36 18.18"/><polygon class="cls-1" points="47.17 28.67 38.94 52.38 55.4 52.38 47.17 28.67"/><polygon class="cls-1" points="30.71 32.45 22.48 56.16 38.94 56.16 30.71 32.45"/><polygon class="cls-1" points="19.4 30.13 14.52 44.21 24.29 44.21 19.4 30.13"/><polygon class="cls-1" points="10.38 37.17 5.5 51.24 15.27 51.24 10.38 37.17"/><polygon class="cls-1" points="116.06 33.94 111.17 48.01 120.94 48.01 116.06 33.94"/><polygon class="cls-1" points="81.78 21.55 73.55 45.26 90.01 45.26 81.78 21.55"/><polygon class="cls-1" points="101.04 14.47 90.9 53.4 111.17 53.4 101.04 14.47"/></svg>