<svg id="Layer_1" data-name="Layer 1" xmlns="http://www.w3.org/2000/svg" viewBox="0 0 50.14 57.74"><defs><style>.cls-1{fill:#cecece;}</style></defs><title>Map</title><path class="cls-1" d="M45.32,42.54,40.1,43.88V32.36l-6.69,2.69V45.23l-17.27,4V28.58s15-17.48,15.27-17.78c6,5.71,13.94,14.56,13.94,15C45.4,29,45.32,42.54,45.32,42.54ZM22.83,39.23l5.73-1.35V31l-5.73,1.35Z"/><path class="cls-1" d="M30.2,10.15,15.07,26.61s-7.51-3.52-7.51-3.66,5.22-5.55,7.63-8.29c.25-.29.42-9.66.45-10.07h3.49v6.69l2.74-2.1Z"/><polygon class="cls-1" points="13.27 49.27 5.76 40.24 5.76 24.43 13.27 28.13 13.27 49.27"/></svg>