<svg id="Layer_1" data-name="Layer 1" xmlns="http://www.w3.org/2000/svg" viewBox="0 0 333.09 327.09"><defs><style>.cls-1,.cls-2,.cls-3,.cls-4,.cls-5{fill:none;stroke:#cecece;stroke-miterlimit:10;}.cls-1,.cls-4,.cls-5{stroke-width:5px;}.cls-3{opacity:0.38;}.cls-4{opacity:0.28;}.cls-5{opacity:0.16;}</style></defs><title>Map</title><circle class="cls-1" cx="167.98" cy="163.33" r="143.55"/><circle class="cls-2" cx="167.98" cy="163.79" r="150.68"/><path class="cls-3" d="M25.17,182.88s89.21-25.25,107.16-6.91,54.6-14.68,69,0,10.26,40.05,49.34,33.38c40-6.84,59.32-26.62,59.32-26.62"/><path class="cls-4" d="M24.5,163.33s24.75-46.43,91.1-44.69c27.47.72,28.59,30.13,61.54,26,19.91-2.5,74.71-9.88,49.92-38.32C182.1,54.73,271,68.1,278.47,71"/><path class="cls-5" d="M306.61,194.1s-4.24,39.34-63.93,32.77C218,224.14,200.51,192.32,171,198.17c-21.37,4.24-32.72,14.4-12.52,41.92C195.17,290,79.12,278.14,72.59,275"/><path class="cls-3" d="M40.48,98.43s32.53-18.4,56,0,71.29-14.73,90.06,0S199.18,149,250.94,149h57.74"/></svg>