<svg id="Layer_1" data-name="Layer 1" xmlns="http://www.w3.org/2000/svg" viewBox="0 0 333.09 327.09"><defs><style>.cls-1,.cls-10,.cls-2,.cls-7,.cls-8,.cls-9{fill:none;stroke:#cecece;stroke-miterlimit:10;}.cls-1,.cls-10,.cls-9{stroke-width:5px;}.cls-3{fill:#cecece;}.cls-4{fill:#b2b2b2;}.cls-5{fill:#35a5a5;}.cls-6{fill:#fff;}.cls-7{stroke-width:3px;}.cls-8{opacity:0.38;}.cls-9{opacity:0.28;}.cls-10{opacity:0.16;}</style></defs><title>Map</title><circle class="cls-1" cx="167.98" cy="163.33" r="143.55"/><circle class="cls-2" cx="167.98" cy="163.79" r="150.68"/><polygon class="cls-3" points="173.33 248.65 160.14 286.64 186.52 286.64 173.33 248.65"/><polygon class="cls-3" points="160.14 259.14 151.91 282.85 168.38 282.85 160.14 259.14"/><polygon class="cls-3" points="143.68 262.93 135.45 286.64 151.91 286.64 143.68 262.93"/><polygon class="cls-3" points="132.37 260.61 127.49 274.68 137.26 274.68 132.37 260.61"/><polygon class="cls-3" points="123.35 267.64 118.47 281.72 128.24 281.72 123.35 267.64"/><polygon class="cls-3" points="229.03 264.41 224.15 278.48 233.92 278.48 229.03 264.41"/><polygon class="cls-3" points="194.75 252.02 186.52 275.73 202.98 275.73 194.75 252.02"/><polygon class="cls-3" points="214.01 244.94 203.87 283.88 224.15 283.88 214.01 244.94"/><polygon class="cls-3" points="146.55 91.01 127.02 97.01 127.02 58.59 146.55 65.59 146.55 91.01"/><polygon class="cls-3" points="157.49 81.67 141.92 84.67 141.92 31.87 157.49 37.87 157.49 81.67"/><polygon class="cls-3" points="182.65 81.27 170.33 83.64 170.33 41.87 182.65 46.62 182.65 81.27"/><polygon class="cls-3" points="161.41 81.27 167.57 83.64 167.57 41.87 161.41 46.62 161.41 81.27"/><polygon class="cls-3" points="206.12 76.55 209.2 78.26 209.2 48.17 206.12 51.59 206.12 76.55"/><polygon class="cls-3" points="132.37 71.27 138.53 73.64 138.53 31.87 132.37 36.62 132.37 71.27"/><polygon class="cls-3" points="117.19 94.25 123.35 96.35 123.35 59.33 117.19 63.53 117.19 94.25"/><g id="yW2YL5.tif"><path class="cls-4" d="M127.22,181.28h-3a7.09,7.09,0,0,0-.71-.3,7.45,7.45,0,0,1-4.53-3.7,22,22,0,0,1-.9-2.14v-3c.09-.22.19-.44.27-.67a7.42,7.42,0,0,1,6.57-5.49,20.48,20.48,0,0,1,3.62.2c.47-.93,1-2,1.5-3a.72.72,0,0,0,0-.55c-.38-.81-.79-1.6-1.21-2.42-.4.12-.75.23-1.11.32-.78.19-1.07,0-1.22-.66-.2-.94.07-1.59.79-1.61,1.84-.05,3.69,0,5.54,0,.19,0,.53.23.54.36a.85.85,0,0,1-.31.68,3.94,3.94,0,0,1-1.19.41,13.71,13.71,0,0,1-1.37.15c.29.59.57,1.08.78,1.61a1,1,0,0,0,1.07.66c3.87,0,7.74,0,11.61,0h.77l-.31-1.76c-.23-1.31-.23-1.27-1.54-1.32a7.61,7.61,0,0,1-2.33-.34c-1.07-.4-1.24-1.15-.61-2h.75a3.74,3.74,0,0,0,1.17.65,23.41,23.41,0,0,0,2.68.1c.87,0,1.1.21,1.24,1.06s.28,1.87.47,2.8c.33,1.57.7,3.13,1,4.7l.57-.05a7.7,7.7,0,0,1,8.25,5.37c.09.28.2.54.3.82v3a7.09,7.09,0,0,0-.3.71,7.45,7.45,0,0,1-3.7,4.53,22,22,0,0,1-2.14.9h-3c-.22-.09-.44-.2-.67-.27a7.66,7.66,0,0,1-4-12,22.84,22.84,0,0,1,3.07-2.76l-.4-1.53a.87.87,0,0,0-.19.1q-3.86,4.5-7.71,9a1.42,1.42,0,0,1-1.27.61c-.7,0-1.4,0-2.1,0-.42,0-.62.06-.73.57a7.57,7.57,0,0,1-5.29,6Zm18.95-13.13a6,6,0,0,0-3,7.86,6.09,6.09,0,0,0,11.29-4.56c-1.08-2.76-4.34-4.59-6.66-3.73.12.43.24.86.37,1.28.43,1.38.9,2.74,1.27,4.13a1.46,1.46,0,0,1-.28,1.1c-.11.14-.65.06-.91-.07s-.28-.45-.36-.71C147.3,171.69,146.74,169.92,146.17,168.15Zm-18.47-.26a6.06,6.06,0,0,0-6.91,9.24,6.06,6.06,0,0,0,6.88,2.26c2.26-.78,4.1-3,4-5H126c-.95,0-1.24-.47-.86-1.36.11-.25.24-.49.36-.74Zm9,4.27,7.21-8.42H132.46Zm-5.53-7.46-1.21,2.42a7.64,7.64,0,0,1,3.29,4.6c.3,1.16.29,1.16,1.49,1.1.12,0,.24,0,.45-.07Zm-2,3.89-2.08,4.19h4.64A6,6,0,0,0,129.19,168.59Z"/></g><g id="_8kN6hb.tif" data-name="8kN6hb.tif"><path class="cls-5" d="M88.5,200.5a10,10,0,0,1-3-.24.48.48,0,0,1-.38-.35c-.27-.86-.54-1.72-.81-2.58a.23.23,0,0,1,0-.18,2.66,2.66,0,0,1,1-.68,12.45,12.45,0,0,1,3.87-1.15,11.09,11.09,0,0,1,1.67,0,4.21,4.21,0,0,1,1.39.28,1.91,1.91,0,0,1,1.29,2,2.17,2.17,0,0,1-.92,1.58,6.17,6.17,0,0,1-2.19,1A8.21,8.21,0,0,1,88.5,200.5Z"/><path class="cls-5" d="M86.42,207.68a8.71,8.71,0,0,1-2.47-.15,11.41,11.41,0,0,1-2.08-.51,2.9,2.9,0,0,1-1.07-.58.24.24,0,0,1-.07-.19c.17-.9.35-1.81.52-2.71a.38.38,0,0,1,.26-.3,9.71,9.71,0,0,1,4.45-.57,6.76,6.76,0,0,1,2.56.7,2.37,2.37,0,0,1,1.23,1.23,1.91,1.91,0,0,1-.92,2.47,4.82,4.82,0,0,1-1.52.48Z"/><path class="cls-5" d="M78.16,202.54a4.46,4.46,0,0,1,2.13.52l0,0c.33.18.33.17.24.52q-.31,1.21-.6,2.43c0,.11-.07.15-.2.15a6.26,6.26,0,0,1-1.9-.34,2.71,2.71,0,0,1-1.19-.79,1.43,1.43,0,0,1,.65-2.31,6.76,6.76,0,0,1,.84-.23Z"/><path class="cls-5" d="M82.27,201.31a2.25,2.25,0,0,1-1.52-.38,1.37,1.37,0,0,1-.37-1.86,2.84,2.84,0,0,1,1.37-1.1,6.75,6.75,0,0,1,1.69-.45c.1,0,.11,0,.13.11l.61,1.65c.12.32.25.64.37,1a.14.14,0,0,1,0,.13,5,5,0,0,1-1.74.85C82.59,201.26,82.39,201.29,82.27,201.31Z"/></g><polygon class="cls-3" points="224.15 88.15 194.1 92.85 194.1 62.75 224.15 68.24 224.15 88.15"/><polygon class="cls-3" points="186.52 91.14 192.68 92.85 192.68 62.76 186.52 66.17 186.52 91.14"/><circle class="cls-3" cx="206.12" cy="67.22" r="10.58"/><polygon class="cls-6" points="218.89 90.84 203.87 93.19 203.87 78.15 218.89 80.89 218.89 90.84"/><polygon class="cls-3" points="217.87 91.11 206.12 92.92 206.12 81.35 217.87 83.46 217.87 91.11"/><polygon class="cls-7" points="247.91 177.88 277.77 182.56 277.77 152.65 247.91 158.1 247.91 177.88"/><polygon class="cls-3" points="246.91 155.09 280.86 148.24 283.86 141.24 252.91 148.25 246.91 155.09"/><polygon class="cls-3" points="289.17 182.78 281.42 184.65 281.42 151.65 290.17 158.4 289.17 182.78"/><polygon class="cls-3" points="233.96 176.63 237.84 178.5 237.84 145.5 233.46 152.25 233.96 176.63"/><polygon class="cls-3" points="291.17 156.95 282.42 149.82 284.86 142.24 290.17 145.75 291.17 156.95"/><polygon class="cls-3" points="254.79 179.49 267.67 181.69 267.67 167.6 254.79 170.17 254.79 179.49"/><path class="cls-3" d="M80.81,187.27l-5.22,1.35V177.1l-6.69,2.69V190l-17.27,4V173.31s15-17.48,15.27-17.78c6,5.71,13.94,14.56,13.94,15C80.89,173.72,80.81,187.27,80.81,187.27ZM58.32,184l5.73-1.35v-6.85l-5.73,1.35Z"/><path class="cls-3" d="M65.69,154.88,50.55,171.35S43,167.83,43,167.68s5.22-5.55,7.63-8.29c.25-.29.42-9.66.45-10.07h3.49V156l2.74-2.1Z"/><polygon class="cls-3" points="48.76 194 41.25 184.97 41.25 169.16 48.76 172.87 48.76 194"/><rect class="cls-6" x="259.53" y="168.8" width="0.85" height="12.78"/><rect class="cls-3" x="258.59" y="159.9" width="0.62" height="11.07" transform="translate(272.72 -141.49) rotate(60)"/><rect class="cls-3" x="254.16" y="162.92" width="0.62" height="5.71" transform="translate(270.8 -137.49) rotate(60)"/><rect class="cls-3" x="262.53" y="162.58" width="0.62" height="5.71" transform="translate(274.69 -144.91) rotate(60)"/><path class="cls-3" d="M279.77,150.56a4.44,4.44,0,0,1-8.69,1.84C275.43,151.47,274.63,151.8,279.77,150.56Z"/><path class="cls-3" d="M252.82,155.7c.35,2.7-1.21,5.13-3.48,5.42s-4.39-1.66-4.74-4.37C248.72,156.23,248,156.5,252.82,155.7Z"/><path class="cls-3" d="M262.7,154.57c.45,3.48-1.55,6.6-4.47,7s-5.64-2.14-6.09-5.62C257.42,155.25,256.44,155.59,262.7,154.57Z"/><path class="cls-3" d="M272.1,152.55c.41,3.2-1.43,6.08-4.12,6.43s-5.2-2-5.61-5.18C267.23,153.17,266.32,153.49,272.1,152.55Z"/><ellipse class="cls-3" cx="235.65" cy="147.56" rx="8.7" ry="14.89"/><path class="cls-8" d="M25.17,182.88s89.21-25.25,107.16-6.91,54.6-14.68,69,0,10.26,40.05,49.34,33.38c40-6.84,59.32-26.62,59.32-26.62"/><path class="cls-9" d="M24.5,163.33s24.75-46.43,91.1-44.69c27.47.72,28.59,30.13,61.54,26,19.91-2.5,74.71-9.88,49.92-38.32C182.1,54.73,271,68.1,278.47,71"/><path class="cls-10" d="M306.61,194.1s-4.24,39.34-63.93,32.77C218,224.14,200.51,192.32,171,198.17c-21.37,4.24-32.72,14.4-12.52,41.92C195.17,290,79.12,278.14,72.59,275"/><path class="cls-8" d="M40.48,98.43s32.53-18.4,56,0,71.29-14.73,90.06,0S199.18,149,250.94,149h57.74"/></svg>