<svg id="Layer_1" data-name="Layer 1" xmlns="http://www.w3.org/2000/svg" viewBox="0 0 78.7 64.65"><defs><style>.cls-1{fill:none;stroke:#cecece;stroke-miterlimit:10;stroke-width:3px;}.cls-2{fill:#cecece;}</style></defs><title>Map</title><polygon class="cls-1" points="26.17 50.23 56.03 54.9 56.03 24.99 26.17 30.44 26.17 50.23"/><polygon class="cls-2" points="25.17 27.43 59.12 20.59 62.12 13.58 31.17 20.6 25.17 27.43"/><polygon class="cls-2" points="67.44 55.12 59.68 57 59.68 23.99 68.44 30.74 67.44 55.12"/><polygon class="cls-2" points="12.22 48.97 16.09 50.85 16.09 17.84 11.72 24.59 12.22 48.97"/><polygon class="cls-2" points="69.44 29.29 60.68 22.17 63.12 14.58 68.44 18.09 69.44 29.29"/><polygon class="cls-2" points="37.8 41.57 33.05 42.51 33.05 51.83 37.8 52.64 37.8 41.57"/><polygon class="cls-2" points="38.64 41.4 38.64 52.79 45.93 54.03 45.93 39.95 38.64 41.4"/><rect class="cls-2" x="36.85" y="32.24" width="0.62" height="11.07" transform="translate(51.3 -13.29) rotate(60)"/><rect class="cls-2" x="32.42" y="35.26" width="0.62" height="5.71" transform="translate(49.38 -9.29) rotate(60)"/><rect class="cls-2" x="40.79" y="34.92" width="0.62" height="5.71" transform="translate(53.27 -16.7) rotate(60)"/><path class="cls-2" d="M58,22.9a4.44,4.44,0,0,1-8.69,1.84C53.69,23.82,52.89,24.14,58,22.9Z"/><path class="cls-2" d="M31.08,28c.35,2.7-1.21,5.13-3.48,5.42s-4.39-1.66-4.74-4.37C27,28.58,26.21,28.84,31.08,28Z"/><path class="cls-2" d="M41,26.91c.45,3.48-1.55,6.6-4.47,7s-5.64-2.14-6.09-5.62C35.68,27.59,34.7,27.94,41,26.91Z"/><path class="cls-2" d="M50.36,24.89c.41,3.2-1.43,6.08-4.12,6.43s-5.2-2-5.61-5.18C45.49,25.52,44.58,25.84,50.36,24.89Z"/><ellipse class="cls-2" cx="13.91" cy="19.9" rx="8.7" ry="14.89"/></svg>